mtllib cube.mtl
g g0
v -0.5 -0.51 -0.5
v 0.5 -0.51 -0.5
v 0.5 -0.51 0.5
v -0.5 -0.51 0.5
v -0.5 0.49 0.5
v 0.5 0.49 0.5
v 0.5 0.49 -0.5
v -0.5 0.49 -0.5
vn 1 0 0
vn 1 0 0
vn 1 0 0
vn 1 0 0
vn -1 0 0
vn -1 0 0
vn -1 0 0
vn -1 0 0
vn 0 0 -1
vn 0 0 -1
vn 0 0 -1
vn 0 0 -1
vn 0 0 1
vn 0 0 1
vn 0 0 1
vn 0 0 1
vn 0 1 0
vn 0 1 0
vn 0 1 0
vn 0 1 0
vn 0 -1 0
vn 0 -1 0
vn 0 -1 0
vn 0 -1 0
vt 0 0
vt 1 0
vt 1 1
vt 0 1
vt 0 0
vt 1 0
vt 1 1
vt 0 1
vt 0 0
vt 1 0
vt 1 1
vt 0 1
vt 0 0
vt 1 0
vt 1 1
vt 0 1
vt 0 0
vt 1 0
vt 1 1
vt 0 1
vt 0 0
vt 1 0
vt 1 1
vt 0 1
usemtl acmat_0
f 6/1/1 3/2/2 2/3/3 7/4/4
f 8/5/5 1/6/6 4/7/7 5/8/8
f 7/9/9 2/10/10 1/11/11 8/12/12
f 5/13/13 4/14/14 3/15/15 6/16/16
f 8/17/17 5/18/18 6/19/19 7/20/20
f 1/21/21 2/22/22 3/23/23 4/24/24
